<svg fill="current" stroke="current" xmlns="http://www.w3.org/2000/svg" width="39.999" height="39.994" viewBox="0 0 39.999 39.994">
  <g id="Group_179" data-name="Group 179" transform="translate(-75.318 233.365)">
    <path id="Path_1473" data-name="Path 1473" d="M75.318-192.464c.049-.018.14-.033.141-.053.156-2.651,2.176-3.225,4.21-3.71q3.485-.833,7.007-1.513a16.187,16.187,0,0,0,6.843-2.853c1.219-.926,2.047-.842,2.978.218.266.3.586.557.884.836-7.69,5.847-15.028,11.885-18.529,21.408a18.387,18.387,0,0,1-2.941-6.407c-.158-.565-.037-1.246-.592-1.674Z" transform="translate(0 -24.024)" />
    <path id="Path_1474" data-name="Path 1474" d="M136.042-233.365a3.74,3.74,0,0,1-1.669,5.011c-.449.224-.655-.039-.938-.23a58.443,58.443,0,0,0-5.758-3.387c1.07-.954,2.6-.565,3.674-1.394Z" transform="translate(-39.147)" />
    <path id="Path_1475" data-name="Path 1475" d="M107.807-159.675A20.308,20.308,0,0,1,96.589-165.6c-.5-.519-.244-1.069-.111-1.605a24.283,24.283,0,0,1,5.552-9.809,65.082,65.082,0,0,1,11.686-10.528c.7-.5,1.217-.683,1.755.139a4.722,4.722,0,0,0,.624.7c.891.9,1.42,1.553.108,2.806-1.934,1.847-2.369,4.557-3,7.074-1.332,5.334-2.362,10.752-4.383,15.895C108.6-160.362,108.566-159.476,107.807-159.675Z" transform="translate(-15.682 -33.944)"/>
    <path id="Path_1476" data-name="Path 1476" d="M152.239-145.089c2.679-6.509,3.624-13.381,5.6-19.969a9.5,9.5,0,0,1,1.587-3.18c.585-.747.917-.75,1.375.151a40.635,40.635,0,0,1,3.606,11.2,46.516,46.516,0,0,1,.734,6.5,1.562,1.562,0,0,1-.656,1.588A20.231,20.231,0,0,1,152.239-145.089Z" transform="translate(-57.511 -48.287)" />
    <path id="Path_1477" data-name="Path 1477" d="M197.11-156.122c-.326-2.651-.568-5.224-1.132-7.75a37.716,37.716,0,0,0-3.41-9.814c-.5-.933-.309-1.169.659-1.37a5.471,5.471,0,0,1,4.586.876,27.088,27.088,0,0,1,4.7,4.76,1.267,1.267,0,0,1,.261.857C202.9-164.855,200.181-158.793,197.11-156.122Z" transform="translate(-87.463 -43.478)"/>
    <path id="Path_1478" data-name="Path 1478" d="M82.27-214.04a20.31,20.31,0,0,1,8.192-9.127,1.115,1.115,0,0,1,1.159-.091,46.816,46.816,0,0,1,6.8,3.866C93.7-215.543,87.728-216.173,82.27-214.04Z" transform="translate(-5.198 -7.465)"/>
    <path id="Path_1479" data-name="Path 1479" d="M190.715-195.982c-1.124-1.068-1.886-1.845-2.7-2.557a7.381,7.381,0,0,0-7.662-1.735,1.557,1.557,0,0,1-2.166-.747,18.2,18.2,0,0,0-1.813-2.185,17.744,17.744,0,0,1,8.806-3.358,1.068,1.068,0,0,1,1.074.413A20.2,20.2,0,0,1,190.715-195.982Z" transform="translate(-75.554 -20.028)"/>
    <path id="Path_1480" data-name="Path 1480" d="M172.094-226.837a20.706,20.706,0,0,0-8.421,3.223c-.651.412-3.281-.93-3.273-1.685,0-.233.313-.5.534-.686a5.262,5.262,0,0,0,2.013-4.519c-.041-.625.135-.834.789-.676A20.055,20.055,0,0,1,172.094-226.837Z" transform="translate(-63.614 -1.596)" />
  </g>
</svg>
