<svg fill="current" stroke="current" xmlns="http://www.w3.org/2000/svg" width="40" height="39.92" viewBox="0 0 40 39.92">
  <g id="Group_191" data-name="Group 191" transform="translate(292.898 -146.903)">
    <path id="Path_1497" data-name="Path 1497" d="M-266.458,169.672c-2.622,0-5.244-.01-7.865,0a4.259,4.259,0,0,0-4.1,3.3c-.152.677-.231,1.371-.329,2.059-.39,2.755-.781,5.509-1.156,8.266a4.428,4.428,0,0,0-.063,1.863,2.287,2.287,0,0,0,2.036,1.657,2.243,2.243,0,0,0,2.261-1.393c.486-1.15.917-2.323,1.4-3.472a3.4,3.4,0,0,1,3.342-2.246c2.956-.011,5.913-.007,8.869,0a3.453,3.453,0,0,1,3.4,2.291c.455,1.117.889,2.243,1.348,3.358a2.265,2.265,0,0,0,2.752,1.384,2.277,2.277,0,0,0,1.646-2.53c-.158-1.228-.339-2.453-.512-3.679-.325-2.3-.682-4.6-.97-6.9a4.352,4.352,0,0,0-4.4-3.953Q-262.63,169.667-266.458,169.672Zm-14.663-7.124c1.213,0,2.427-.006,3.64.005.235,0,.306-.06.305-.3q-.014-3.306,0-6.612c0-.21-.046-.284-.273-.292a25.916,25.916,0,0,1-5.97-.884c-.194-.053-.3-.036-.368.185a28.581,28.581,0,0,0-1.259,7.589c-.008.273.082.318.328.315C-283.52,162.542-282.32,162.549-281.121,162.549Zm9.3,0c1.185,0,2.37-.008,3.555.006.283,0,.38-.051.367-.362a29.484,29.484,0,0,0-1.245-7.467c-.072-.235-.14-.32-.428-.243a26.037,26.037,0,0,1-5.888.864c-.281.009-.307.112-.306.344q.011,3.262,0,6.525c0,.282.085.342.351.339C-274.222,162.541-273.023,162.549-271.824,162.549Zm-17.872,0c.962,0,1.924-.009,2.886.006.262,0,.35-.055.358-.336a28.606,28.606,0,0,1,1.306-7.916c.082-.257.017-.364-.231-.445a20.522,20.522,0,0,1-3.123-1.36.319.319,0,0,0-.48.09,16.517,16.517,0,0,0-3.917,9.643c-.021.272.061.327.314.323C-291.62,162.541-290.658,162.549-289.7,162.549Zm26.421,0c.962,0,1.923-.008,2.885.005.248,0,.336-.039.313-.318-.045-.541-.1-1.08-.185-1.616a16.276,16.276,0,0,0-3.713-8.027.322.322,0,0,0-.484-.094,21.123,21.123,0,0,1-3.16,1.382c-.2.069-.274.129-.2.375a28.167,28.167,0,0,1,1.3,7.953c0,.267.086.352.363.346C-265.2,162.537-264.237,162.549-263.276,162.549Zm-29.584,1.688a14.75,14.75,0,0,0,.456,2.977,16.494,16.494,0,0,0,3.475,6.713.278.278,0,0,0,.414.087,21.246,21.246,0,0,1,3.2-1.4c.208-.073.289-.122.208-.373a27.6,27.6,0,0,1-.78-3.021,31.386,31.386,0,0,1-.565-4.933c-.006-.153.053-.331-.231-.329-1.995.01-3.989.007-5.983,0C-292.854,163.962-292.928,164.023-292.86,164.237Zm11.759-.271c-1.156,0-2.313.023-3.469-.012-.426-.013-.514.122-.472.508.076.705.1,1.416.173,2.121a27.279,27.279,0,0,0,1.124,5.285c.058.183.119.218.32.166a24.227,24.227,0,0,1,3.843-.715.544.544,0,0,0,.455-.3,5.331,5.331,0,0,1,1.72-1.79.452.452,0,0,0,.231-.438c-.008-1.5-.012-3.009,0-4.514,0-.273-.091-.316-.333-.314C-278.7,163.971-279.9,163.965-281.1,163.965Zm5.337,4.482a9.81,9.81,0,0,1,1.98-.2c1.715.011,3.43,0,5.145.009.234,0,.321-.046.364-.3a36.7,36.7,0,0,0,.364-3.74c.014-.223-.076-.251-.26-.25q-3.681.006-7.362,0c-.14,0-.235.006-.234.194C-275.761,165.578-275.764,167-275.764,168.447Zm-1.417-17.995c0-1.087-.011-2.174.007-3.261,0-.291-.093-.323-.335-.26a5.654,5.654,0,0,0-1.949.913,11.834,11.834,0,0,0-3.683,5.065c-.115.264.117.215.2.236a25.466,25.466,0,0,0,5.435.795c.3.009.331-.1.329-.352C-277.187,152.542-277.18,151.5-277.18,150.452Zm1.416-.069c0,1.087,0,2.174,0,3.262,0,.181-.008.3.255.295a26.039,26.039,0,0,0,5.521-.79c.2-.049.223-.134.143-.315a13.615,13.615,0,0,0-2.522-4,6.368,6.368,0,0,0-2.958-1.87c-.338-.092-.457-.071-.446.325C-275.747,148.32-275.764,149.352-275.764,150.383Zm12.48,13.582c-.962,0-1.924.01-2.885-.006-.267,0-.364.062-.365.342a22.055,22.055,0,0,1-.331,3.655c-.043.253.04.3.275.3q2.739-.013,5.478,0c.189,0,.291-.032.354-.246a16.39,16.39,0,0,0,.667-3.724c.014-.261-.044-.329-.307-.325C-261.36,163.975-262.322,163.965-263.284,163.965Zm-18.1,14.879c-.3-.359-.615-.71-.908-1.078a14.71,14.71,0,0,1-2.118-3.619c-.045-.11-.02-.346-.281-.256a21.18,21.18,0,0,0-3.032,1.3A15.121,15.121,0,0,0-281.387,178.844ZM-265.2,151.3a15.527,15.527,0,0,0-6.31-3.652,1.724,1.724,0,0,0,.279.366,14.657,14.657,0,0,1,2.707,4.318c.056.139.049.373.346.264A23.605,23.605,0,0,0-265.2,151.3Zm-16.286-3.641a15.538,15.538,0,0,0-6.257,3.639,19.473,19.473,0,0,0,2.332,1.058c.808.314.807.314,1.168-.476.023-.05.045-.1.068-.152A16.984,16.984,0,0,1-281.488,147.658Zm.938,29.989c.233-1.6.454-3.132.685-4.665.034-.225-.075-.224-.234-.2-.946.152-1.887.329-2.817.563-.247.062-.245.153-.153.342.134.274.242.56.379.833A13.52,13.52,0,0,0-280.55,177.647Z" />
    <path id="Path_1498" data-name="Path 1498" d="M-235.305,224.9q3.828,0,7.656,0a4.352,4.352,0,0,1,4.4,3.953c.288,2.3.645,4.6.97,6.9.173,1.226.354,2.451.512,3.679a2.277,2.277,0,0,1-1.646,2.53,2.265,2.265,0,0,1-2.752-1.384c-.458-1.116-.893-2.241-1.348-3.358a3.453,3.453,0,0,0-3.4-2.291c-2.956,0-5.913-.009-8.869,0a3.4,3.4,0,0,0-3.342,2.246c-.487,1.15-.918,2.323-1.4,3.472a2.243,2.243,0,0,1-2.261,1.393,2.287,2.287,0,0,1-2.036-1.657,4.427,4.427,0,0,1,.063-1.863c.375-2.757.766-5.511,1.156-8.266.1-.688.177-1.382.329-2.059a4.259,4.259,0,0,1,4.1-3.3C-240.549,224.887-237.927,224.9-235.305,224.9Zm-5.634,5.7c.181,0,.363,0,.544,0,.465-.011.741-.251.76-.655a.678.678,0,0,0-.722-.738,9.123,9.123,0,0,0-1.087,0c-.272.019-.33-.083-.314-.33.02-.334.011-.669,0-1-.011-.5-.288-.807-.709-.809s-.7.305-.713.8a9.995,9.995,0,0,0,.005,1c.024.291-.092.349-.353.337a9.394,9.394,0,0,0-1.128.01.66.66,0,0,0-.652.719.674.674,0,0,0,.71.663,9.92,9.92,0,0,0,1,0c.31-.022.457.047.42.4a7.518,7.518,0,0,0,0,1,.737.737,0,0,0,.68.761.74.74,0,0,0,.74-.747c.012-.194,0-.39,0-.586C-241.755,230.6-241.755,230.6-240.94,230.6Zm11.322-.716a.71.71,0,0,0-.752-.676.715.715,0,0,0-.67.719.7.7,0,0,0,.754.671A.7.7,0,0,0-229.617,229.883Zm1.447,1.455a.694.694,0,0,0-.706.673.7.7,0,0,0,.677.747.711.711,0,0,0,.71-.677A.7.7,0,0,0-228.171,231.339Zm2.142-2.134a.712.712,0,0,0-.721.708.7.7,0,0,0,.7.686.679.679,0,0,0,.711-.7A.7.7,0,0,0-226.028,229.2Zm-2.147-.735a.7.7,0,0,0,.686-.739.685.685,0,0,0-.707-.666.676.676,0,0,0-.68.728A.7.7,0,0,0-228.175,228.469Z" transform="translate(-31.152 -55.225)" />
    <path id="Path_1499" data-name="Path 1499" d="M-262.076,180.83c-1.2,0-2.4-.007-3.6.006-.246,0-.336-.043-.328-.315a28.581,28.581,0,0,1,1.259-7.589c.068-.221.175-.238.368-.185a25.915,25.915,0,0,0,5.97.884c.227.008.274.082.273.292q-.01,3.306,0,6.612c0,.241-.07.3-.305.3C-259.649,180.824-260.862,180.83-262.076,180.83Z" transform="translate(-19.045 -18.281)" />
    <path id="Path_1500" data-name="Path 1500" d="M-230.275,180.868c-1.2,0-2.4-.008-3.6.006-.265,0-.352-.057-.351-.339q.018-3.263,0-6.525c0-.231.025-.335.306-.344a26.037,26.037,0,0,0,5.888-.864c.288-.076.356.008.428.243a29.484,29.484,0,0,1,1.245,7.467c.013.311-.085.366-.367.362C-227.9,180.86-229.09,180.868-230.275,180.868Z" transform="translate(-41.549 -18.319)" />
    <path id="Path_1501" data-name="Path 1501" d="M-289.7,175.951c-.962,0-1.924-.008-2.886.006-.253,0-.335-.051-.314-.323a16.517,16.517,0,0,1,3.917-9.643.319.319,0,0,1,.48-.09,20.52,20.52,0,0,0,3.123,1.36c.247.081.313.188.231.445a28.606,28.606,0,0,0-1.306,7.916c-.008.28-.1.34-.358.336C-287.772,175.942-288.734,175.951-289.7,175.951Z" transform="translate(0 -13.402)" />
    <path id="Path_1502" data-name="Path 1502" d="M-202.507,175.952c-.962,0-1.924-.011-2.885.007-.276.006-.359-.08-.363-.346a28.166,28.166,0,0,0-1.3-7.953c-.076-.247,0-.306.2-.375a21.123,21.123,0,0,0,3.16-1.382.322.322,0,0,1,.484.094,16.276,16.276,0,0,1,3.713,8.027c.087.536.14,1.075.185,1.616.023.279-.064.321-.313.318C-200.583,175.945-201.545,175.952-202.507,175.952Z" transform="translate(-60.769 -13.404)" />
    <path id="Path_1503" data-name="Path 1503" d="M-292.826,205.613c-.068-.214.006-.274.192-.274,1.994,0,3.989.007,5.983,0,.284,0,.225.176.231.329a31.386,31.386,0,0,0,.565,4.933,27.611,27.611,0,0,0,.78,3.021c.081.251,0,.3-.208.373a21.247,21.247,0,0,0-3.2,1.4.278.278,0,0,1-.414-.087,16.494,16.494,0,0,1-3.475-6.713A14.75,14.75,0,0,1-292.826,205.613Z" transform="translate(-0.034 -41.376)" />
    <path id="Path_1504" data-name="Path 1504" d="M-262.062,205.323c1.2,0,2.4.006,3.594,0,.242,0,.336.041.333.314-.015,1.5-.011,3.009,0,4.514a.452.452,0,0,1-.231.438,5.331,5.331,0,0,0-1.72,1.79.544.544,0,0,1-.455.3,24.225,24.225,0,0,0-3.843.715c-.2.052-.262.017-.32-.166a27.279,27.279,0,0,1-1.124-5.285c-.076-.7-.1-1.416-.173-2.121-.042-.386.046-.521.472-.508C-264.375,205.346-263.219,205.323-262.062,205.323Z" transform="translate(-19.038 -41.358)" />
    <path id="Path_1505" data-name="Path 1505" d="M-234.206,209.83c0-1.449,0-2.869,0-4.289,0-.188.093-.194.234-.194q3.681,0,7.362,0c.184,0,.274.028.26.25a36.694,36.694,0,0,1-.364,3.74c-.043.256-.129.3-.364.3-1.715-.009-3.43,0-5.145-.009A9.81,9.81,0,0,0-234.206,209.83Z" transform="translate(-41.558 -41.383)" />
    <path id="Path_1506" data-name="Path 1506" d="M-253.582,150.452c0,1.045-.006,2.091,0,3.136,0,.248-.026.361-.329.352a25.466,25.466,0,0,1-5.435-.795c-.083-.021-.315.029-.2-.236a11.834,11.834,0,0,1,3.683-5.065,5.654,5.654,0,0,1,1.949-.913c.242-.063.339-.031.335.26C-253.593,148.277-253.582,149.365-253.582,150.452Z" transform="translate(-23.598)" />
    <path id="Path_1507" data-name="Path 1507" d="M-234.222,150.421c0-1.032.018-2.063-.009-3.094-.01-.4.109-.417.446-.325a6.368,6.368,0,0,1,2.958,1.87,13.616,13.616,0,0,1,2.522,4c.079.181.056.266-.143.315a26.039,26.039,0,0,1-5.521.79c-.263.007-.256-.114-.255-.295C-234.22,152.6-234.222,151.508-234.222,150.421Z" transform="translate(-41.543 -0.038)" />
    <path id="Path_1508" data-name="Path 1508" d="M-200.158,205.338c.962,0,1.924.01,2.885-.006.263,0,.321.064.307.325a16.39,16.39,0,0,1-.667,3.724c-.063.214-.165.246-.354.246q-2.739-.007-5.478,0c-.235,0-.318-.046-.275-.3a22.054,22.054,0,0,0,.331-3.655c0-.28.1-.346.365-.342C-202.081,205.348-201.119,205.338-200.158,205.338Z" transform="translate(-63.126 -41.373)" />
    <path id="Path_1509" data-name="Path 1509" d="M-268.837,244.262a15.122,15.122,0,0,1-6.339-3.658,21.178,21.178,0,0,1,3.032-1.3c.261-.09.236.146.281.256a14.708,14.708,0,0,0,2.118,3.619C-269.452,243.552-269.14,243.9-268.837,244.262Z" transform="translate(-12.55 -65.418)" />
    <path id="Path_1510" data-name="Path 1510" d="M-213.32,153.1a23.609,23.609,0,0,1-2.977,1.3c-.3.109-.29-.126-.346-.264a14.657,14.657,0,0,0-2.707-4.318,1.724,1.724,0,0,1-.279-.366A15.527,15.527,0,0,1-213.32,153.1Z" transform="translate(-51.882 -1.803)" />
    <path id="Path_1511" data-name="Path 1511" d="M-268.986,149.487a16.984,16.984,0,0,0-2.689,4.069c-.023.05-.045.1-.068.152-.361.79-.36.79-1.168.476a19.475,19.475,0,0,1-2.332-1.058A15.538,15.538,0,0,1-268.986,149.487Z" transform="translate(-12.502 -1.829)" />
    <path id="Path_1512" data-name="Path 1512" d="M-256.843,240.4a13.52,13.52,0,0,1-2.14-3.126c-.137-.272-.245-.559-.379-.833-.092-.189-.094-.28.153-.342.93-.235,1.87-.412,2.817-.563.159-.025.268-.027.234.2C-256.389,237.267-256.61,238.8-256.843,240.4Z" transform="translate(-23.706 -62.753)" />
    <path id="Path_1513" data-name="Path 1513" d="M-186.279,240.344a.7.7,0,0,1-.668.713.7.7,0,0,1-.754-.671.715.715,0,0,1,.67-.719A.71.71,0,0,1-186.279,240.344Z" transform="translate(-74.49 -65.686)" />
    <path id="Path_1514" data-name="Path 1514" d="M-179.587,246.974a.7.7,0,0,1,.682.743.711.711,0,0,1-.71.677.7.7,0,0,1-.677-.747A.694.694,0,0,1-179.587,246.974Z" transform="translate(-79.736 -70.86)" />
    <path id="Path_1515" data-name="Path 1515" d="M-172.284,239.662a.7.7,0,0,1,.685.693.679.679,0,0,1-.711.7.7.7,0,0,1-.7-.686A.712.712,0,0,1-172.284,239.662Z" transform="translate(-84.897 -65.682)" />
    <path id="Path_1516" data-name="Path 1516" d="M-179.59,233.733a.7.7,0,0,1-.7-.678.676.676,0,0,1,.68-.728.685.685,0,0,1,.707.666A.7.7,0,0,1-179.59,233.733Z" transform="translate(-79.737 -60.489)" />
  </g>
</svg>
