<svg xmlns="http://www.w3.org/2000/svg" width="38.495" height="36.32" viewBox="0 0 38.495 36.32">
  <g id="Group_189" data-name="Group 189" transform="translate(101.395 231.089)">
    <path id="Path_1493" data-name="Path 1493" d="M-101.395-228.421a5.218,5.218,0,0,1,.83-1.558,3.184,3.184,0,0,1,3.118-1.036,3.129,3.129,0,0,1,2.45,2.18,3.3,3.3,0,0,1-1.714,4.024,3.339,3.339,0,0,1-4.1-1.1,12.308,12.308,0,0,1-.584-1.228Z" transform="translate(0)" fill="#4e4e4e"/>
    <path id="Path_1494" data-name="Path 1494" d="M-73.173-210.791a2.086,2.086,0,0,1-1.034,3.37,2.1,2.1,0,0,1-2.014-.506c-.9-.792-1.816-1.576-2.709-2.382a.548.548,0,0,0-.658-.139c-.693.279-1.393.544-2.1.778a8.257,8.257,0,0,0-1.467.736.327.327,0,0,0-.177.367c.2,1.955.382,3.91.578,5.865a3.377,3.377,0,0,1-.319,1.923c-1.261,2.52-2.483,5.059-3.729,7.587a2.077,2.077,0,0,1-3.086.908,2.02,2.02,0,0,1-.763-2.478c.536-1.207,1.141-2.384,1.72-3.572.557-1.143,1.109-2.29,1.685-3.424A2.1,2.1,0,0,0-87-203.074c-.131-.915-.151-1.846-.267-2.764a17.539,17.539,0,0,0-.85-2.936c-.932-3.024-1.888-6.041-2.832-9.061a1.682,1.682,0,0,1,1.148-2.307c1.25-.458,2.5-.919,3.756-1.36a.715.715,0,0,0,.481-.5c.479-1.363.976-2.72,1.469-4.079a1.792,1.792,0,0,1,1.673-1.287,1.793,1.793,0,0,1,1.816,2.32c-.64,1.926-1.352,3.829-2.049,5.737a1.827,1.827,0,0,1-1.44,1.178c-.534.115-.534.119-.387.67.327,1.228.664,2.454.976,3.686.067.263.151.277.378.183.457-.188.928-.343,1.428-.524-.125-.143-.235-.257-.332-.381a2.055,2.055,0,0,1-.115-2.415,2,2,0,0,1,2.289-.86c1.663.563,3.308,1.181,4.958,1.781,1.7.618,3.4,1.235,5.087,1.869a.37.37,0,0,0,.521-.154c.543-.749,1.107-1.483,1.668-2.227a8.778,8.778,0,0,0-2.858-.949c-1.224-.242-2.445-.5-3.665-.757a1.836,1.836,0,0,1-1.523-1.711,1.817,1.817,0,0,1,1.336-1.855,1.954,1.954,0,0,1,.93-.021c1.772.363,3.564.658,5.3,1.141a19.565,19.565,0,0,1,3.8,1.638c1.591.834,3.185,1.662,4.829,2.39.775.343,1.526.747,2.32,1.039a2.391,2.391,0,0,1,1.632,2.308c.12,1.419.316,2.833.5,4.246a1.922,1.922,0,0,1-1.013,2.106,1.814,1.814,0,0,1-2.155-.437,2.106,2.106,0,0,1-.485-1.233c-.133-1.155-.269-2.31-.391-3.467a.614.614,0,0,0-.426-.569c-.577-.235-1.144-.5-1.705-.766a.269.269,0,0,0-.4.1q-1.873,2.49-3.76,4.969a.52.52,0,0,0-.085.424c.243,1.733.5,3.464.724,5.2a14.327,14.327,0,0,1-.088,2.7c-.1,1.712-.232,3.422-.348,5.134a2.089,2.089,0,0,1-1.2,1.893,1.973,1.973,0,0,1-2.1-.169,2.1,2.1,0,0,1-.891-1.99c.158-2.286.357-4.569.455-6.858a15.189,15.189,0,0,0-.285-2.377c-.2-1.725-.548-3.432-.646-5.169-.005-.1-.011-.175-.116-.2-1.083-.3-2.1-.786-3.175-1.1a.1.1,0,0,0-.144-.041Z" transform="translate(-7.907 -2.851)" fill="#4e4e4e"/>
    <path id="Path_1495" data-name="Path 1495" d="M31.7-213.746a3.317,3.317,0,0,1-3.283,3.306,3.3,3.3,0,0,1-3.3-3.291,3.242,3.242,0,0,1,3.286-3.3A3.257,3.257,0,0,1,31.7-213.746Z" transform="translate(-96.86 -10.767)" fill="#4e4e4e"/>
    <path id="Path_1496" data-name="Path 1496" d="M-14.947-157.027l-.068-.1a.1.1,0,0,1,.144.041Z" transform="translate(-66.134 -56.614)" fill="#4e4e4e"/>
  </g>
</svg>
