<svg xmlns="http://www.w3.org/2000/svg" width="40" height="45.734" viewBox="0 0 40 45.734">
  <g id="Group_197" data-name="Group 197" transform="translate(280.153 31.65)">
    <path id="Path_1525" data-name="Path 1525" d="M-259.8,14.084h-.715c-.14-.078-.281-.155-.42-.235q-9.233-5.33-18.466-10.659a1.417,1.417,0,0,1-.756-1.318q0-10.652,0-21.3a1.416,1.416,0,0,1,.751-1.321q9.235-5.327,18.465-10.662a1.438,1.438,0,0,1,1.555-.012q9.225,5.331,18.452,10.657a1.449,1.449,0,0,1,.777,1.352q0,10.63,0,21.259a1.442,1.442,0,0,1-.768,1.358c-.645.365-1.283.744-1.925,1.114ZM-271.657-9.711a.6.6,0,0,1,.241.377q1.082,2.581,2.153,5.167a1.387,1.387,0,0,0,1.537,1.015c.357,0,.715,0,1.072,0a1.354,1.354,0,0,0,1.472-1.468c.009-.67,0-1.34,0-2.009q0-3.1,0-6.207a1.446,1.446,0,0,0-.639-1.383,1.322,1.322,0,0,0-2.021,1.158c-.012,1.721,0,3.442,0,5.163a1.062,1.062,0,0,1-.258-.4q-1.076-2.583-2.15-5.167a1.391,1.391,0,0,0-1.447-.957c-.357.013-.714,0-1.071,0a1.342,1.342,0,0,0-1.524,1.532q0,3.215,0,6.431c0,.685-.006,1.37.01,2.054a1.187,1.187,0,0,0,.829,1.151,1.292,1.292,0,0,0,1.792-1.238C-271.645-6.211-271.657-7.937-271.657-9.711Zm8.824.919c0,1.4-.006,2.8,0,4.2a1.322,1.322,0,0,0,1.315,1.439,1.335,1.335,0,0,0,1.36-1.442c.009-.565.02-1.132-.005-1.7-.015-.329.051-.461.423-.445.787.033,1.577.016,2.366.008a1.328,1.328,0,0,0,1.325-.863,1.332,1.332,0,0,0-1.337-1.812c-.818-.017-1.637-.013-2.455,0-.252,0-.329-.065-.32-.319.019-.565.023-1.132,0-1.7-.012-.285.081-.342.349-.339,1.25.014,2.5.007,3.75.006a1.442,1.442,0,0,0,1.206-.458,1.3,1.3,0,0,0,.2-1.456,1.243,1.243,0,0,0-1.214-.749q-2.723-.008-5.447,0a1.369,1.369,0,0,0-1.513,1.516C-262.835-11.531-262.833-10.161-262.833-8.792Zm14.752.856h.009c0-1.116.023-2.232-.012-3.347-.013-.418.126-.5.5-.477a5.356,5.356,0,0,0,1.29-.034,1.257,1.257,0,0,0,1.071-1.446,1.265,1.265,0,0,0-1.279-1.174c-.268-.009-.536,0-.8,0-1.651,0-3.3-.006-4.954,0a1.26,1.26,0,0,0-1.3,1.153,1.264,1.264,0,0,0,1.095,1.47,5.662,5.662,0,0,0,1.29.029c.359-.017.477.075.473.457-.02,2.187-.011,4.374-.008,6.561a2.063,2.063,0,0,0,.066.705,1.322,1.322,0,0,0,1.4.877,1.253,1.253,0,0,0,1.157-1.205C-248.065-5.555-248.081-6.746-248.081-7.936Z" fill="#4e4e4e"/>
  </g>
</svg>
