<svg xmlns="http://www.w3.org/2000/svg" width="40" height="39.994" viewBox="0 0 40 39.994">
  <g id="Group_183" data-name="Group 183" transform="translate(-264.063 -127.25)">
    <path id="Path_1485" data-name="Path 1485" d="M282.416,127.25h3.124a6.138,6.138,0,0,0,1.239.173,20,20,0,0,1-1.129,39.746,18.678,18.678,0,0,1-8.819-1.286,19.742,19.742,0,0,1-12.552-15.647,6.655,6.655,0,0,0-.217-1.353V145.6c.085-.021.074-.091.079-.153a17.715,17.715,0,0,1,1.266-5.424,19.8,19.8,0,0,1,15.658-12.559A6.64,6.64,0,0,0,282.416,127.25Zm2.353,9.132h0c0,1.028,0,2.056,0,3.084a.485.485,0,0,0,.194.431q3.1,2.466,6.185,4.944a.38.38,0,0,0,.417.078q3.162-1.07,6.334-2.113a.4.4,0,0,0,.312-.336q.621-2.707,1.276-5.407a.465.465,0,0,0-.1-.423,18.794,18.794,0,0,0-7.413-6.272.574.574,0,0,0-.513-.02q-3.2,1.293-6.418,2.562a.38.38,0,0,0-.279.429C284.775,134.352,284.769,135.367,284.769,136.382Zm-1.425.024c0-1.028-.005-2.056,0-3.084a.352.352,0,0,0-.256-.4q-3.253-1.27-6.5-2.568a.492.492,0,0,0-.439.007,18.8,18.8,0,0,0-7.44,6.3.462.462,0,0,0-.078.425q.644,2.661,1.254,5.331a.486.486,0,0,0,.377.416q3.116,1.023,6.222,2.076a.48.48,0,0,0,.521-.1q3.038-2.444,6.091-4.871a.583.583,0,0,0,.245-.522C283.337,138.41,283.344,137.408,283.344,136.406Zm-8.491,22.061c.217.066.282-.065.357-.166.975-1.3,1.946-2.6,2.926-3.9a.429.429,0,0,0,.084-.419q-.925-3.671-1.829-7.347a.449.449,0,0,0-.336-.366q-3.118-1.021-6.225-2.077a.349.349,0,0,0-.456.121q-1.834,2.23-3.69,4.441a.585.585,0,0,0-.155.486,18.51,18.51,0,0,0,2.82,8.031.418.418,0,0,0,.329.217c1.1.167,2.2.352,3.3.528C272.955,158.175,273.929,158.324,274.853,158.468Zm18.354.018.052-.008c2.074-.332,4.148-.667,6.224-.99a.378.378,0,0,0,.287-.217,18.4,18.4,0,0,0,2.815-7.988.622.622,0,0,0-.148-.525q-1.855-2.211-3.691-4.437a.35.35,0,0,0-.455-.126q-3.108,1.051-6.223,2.079a.415.415,0,0,0-.327.324q-.916,3.713-1.849,7.421a.359.359,0,0,0,.067.351q1.5,1.968,2.991,3.944C293.018,158.407,293.069,158.523,293.207,158.486Zm-9.109-3.38q-2.185,0-4.37,0a.491.491,0,0,0-.468.191q-1.422,1.928-2.872,3.836a.289.289,0,0,0-.013.4q1.851,2.88,3.686,5.772a.46.46,0,0,0,.33.229,18.864,18.864,0,0,0,7.809-.1.614.614,0,0,0,.44-.324q1.55-2.741,3.124-5.468a.42.42,0,0,0-.038-.548q-1.415-1.837-2.8-3.695a.628.628,0,0,0-.574-.294C286.933,155.113,285.516,155.105,284.1,155.105Z" fill="#4e4e4e"/>
  </g>
</svg>
