<svg xmlns="http://www.w3.org/2000/svg" width="38.905" height="38.921" viewBox="0 0 38.905 38.921">
  <g id="Group_199" data-name="Group 199" transform="translate(-642.196 -15.579)">
    <path id="Path_1526" data-name="Path 1526" d="M666.953,35.031c0-5.821-.017-11.643.015-17.464a1.9,1.9,0,0,0-1.977-1.987q-3.331.045-6.662,0a1.905,1.905,0,0,0-1.988,1.977q.035,17.484,0,34.969a1.9,1.9,0,0,0,1.956,1.966c2.234-.026,4.469-.006,6.7-.008a1.789,1.789,0,0,0,1.952-1.948Q666.953,43.784,666.953,35.031ZM681.1,39.466q0-6.559,0-13.119a1.78,1.78,0,0,0-1.908-1.908q-3.372,0-6.745,0a1.774,1.774,0,0,0-1.97,1.964q0,13.057,0,26.114a1.8,1.8,0,0,0,1.983,1.968q3.29,0,6.58,0A1.839,1.839,0,0,0,681.1,52.42Q681.1,45.943,681.1,39.466Zm-38.893,5.272q0,3.869,0,7.738a1.824,1.824,0,0,0,1.991,2.008c2.165,0,4.332-.036,6.5.015a1.96,1.96,0,0,0,2.152-2.161c-.038-5.062-.015-10.124-.015-15.186,0-.124,0-.249-.005-.372a1.749,1.749,0,0,0-1.857-1.742c-2.248,0-4.5.04-6.744-.016a1.911,1.911,0,0,0-2.03,2.021C642.233,39.606,642.208,42.172,642.208,44.738Z" fill="#4e4e4e"/>
    <path id="Path_1527" data-name="Path 1527" d="M701.8,35.031q0,8.753,0,17.505a1.789,1.789,0,0,1-1.952,1.948c-2.235,0-4.469-.018-6.7.008a1.9,1.9,0,0,1-1.956-1.966q.034-17.485,0-34.969a1.905,1.905,0,0,1,1.988-1.977q3.33.049,6.662,0a1.9,1.9,0,0,1,1.977,1.987C701.783,23.388,701.8,29.21,701.8,35.031Z" transform="translate(-34.847 0)" fill="#4e4e4e"/>
    <path id="Path_1528" data-name="Path 1528" d="M750.767,61.291q0,6.477,0,12.954a1.839,1.839,0,0,1-2.061,2.065q-3.29,0-6.58,0a1.8,1.8,0,0,1-1.983-1.968q0-13.057,0-26.114a1.774,1.774,0,0,1,1.97-1.964q3.372,0,6.745,0a1.78,1.78,0,0,1,1.908,1.908Q750.77,54.732,750.767,61.291Z" transform="translate(-69.666 -21.825)" fill="#4e4e4e"/>
    <path id="Path_1529" data-name="Path 1529" d="M642.208,92.632c0-2.566.025-5.132-.012-7.7a1.911,1.911,0,0,1,2.03-2.021c2.247.056,4.5.015,6.744.016a1.749,1.749,0,0,1,1.857,1.742c.008.124.005.248.005.372,0,5.062-.024,10.125.015,15.186a1.96,1.96,0,0,1-2.152,2.161c-2.164-.051-4.331-.013-6.5-.015a1.824,1.824,0,0,1-1.991-2.008Q642.207,96.5,642.208,92.632Z" transform="translate(0 -47.893)" fill="#4e4e4e"/>
  </g>
</svg>
