<svg xmlns="http://www.w3.org/2000/svg" xmlns:xlink="http://www.w3.org/1999/xlink" width="37.961" height="38" viewBox="0 0 37.961 38">
  <defs>
    <linearGradient id="linear-gradient" x1="0.5" x2="0.5" y2="1" gradientUnits="objectBoundingBox">
      <stop offset="0" stop-color="#00e5ff"/>
      <stop offset="1" stop-color="#00b9ff"/>
    </linearGradient>
  </defs>
  <g id="Group_177" data-name="Group 177" transform="translate(-416.357 232.137)">
    <path id="Path_1470" data-name="Path 1470" d="M526.929-232.137a5.385,5.385,0,0,1,3.575,5.932c-.141,2.011.122,4.046-.691,6.4a11.519,11.519,0,0,0-1.083-1.507c-3.156-3.193-6.344-6.355-9.509-9.541-.364-.367-.919-.63-.883-1.283Z" transform="translate(-76.208)" fill="url(#linear-gradient)"/>
    <path id="Path_1471" data-name="Path 1471" d="M416.357-130.114c.221.082.5.1.653.255,3.816,3.781,7.618,7.576,11.613,11.557a29.986,29.986,0,0,1-8.684.166c-1.875-.246-2.833-1.779-3.582-3.383Z" transform="translate(0 -76.24)" fill="url(#linear-gradient)"/>
    <path id="Path_1472" data-name="Path 1472" d="M441.572-228.8c.55-.119.8.314,1.1.617,4.262,4.256,8.51,8.527,12.79,12.765a1.506,1.506,0,0,1,.44,1.706q-4.859,16.119-20.961,20.993a1.606,1.606,0,0,1-1.817-.521q-6.3-6.371-12.669-12.676a1.514,1.514,0,0,1-.517-1.686q4.841-16.231,21.057-21.071C441.183-228.733,441.379-228.761,441.572-228.8Zm-6.764,20.2c-.692.495-1.314.975-1.972,1.4-.577.371-.753-.268-1.043-.52-.6-.516-1.208-.753-1.81-.112a1.063,1.063,0,0,0,.212,1.678c.676.556.814,1,.043,1.608a1.085,1.085,0,0,0-.2,1.781c.647.629,1.3.341,1.786-.248.538-.652.96-.667,1.5-.005.487.6,1.142.882,1.782.252a1.1,1.1,0,0,0-.2-1.788c-1.092-.839-.226-1.278.288-1.812s.948-1.229,1.7-.218a1.093,1.093,0,0,0,1.782.24,1.1,1.1,0,0,0-.207-1.786c-1.1-.841-.215-1.277.293-1.809s.955-1.216,1.7-.211a1.1,1.1,0,0,0,1.785.23,1.088,1.088,0,0,0-.217-1.783c-.993-.739-.358-1.2.2-1.7.528-.479.948-1.436,1.806-.313a1.106,1.106,0,0,0,1.789.221c.636-.628.372-1.288-.227-1.784-.637-.527-.691-.95-.018-1.5.589-.481.888-1.132.268-1.787a1.08,1.08,0,0,0-1.781.175c-.6.75-1.043.671-1.608-.025a1.066,1.066,0,0,0-1.677-.227,1.073,1.073,0,0,0,.12,1.782c1.031.784.386,1.244-.2,1.821s-1.036,1.23-1.819.2a1.069,1.069,0,0,0-1.782-.129c-.531.583-.288,1.169.2,1.7.249.272.838.525.6.9a5.923,5.923,0,0,1-1.524,1.587c-.594.423-.792-.355-1.138-.617-.591-.449-1.168-.587-1.7-.008a1.082,1.082,0,0,0,.1,1.589C433.907-209.538,434.181-209.265,434.808-208.607Z" transform="translate(-2.615 -2.477)" fill="url(#linear-gradient)"/>
  </g>
</svg>
