<svg xmlns="http://www.w3.org/2000/svg" xmlns:xlink="http://www.w3.org/1999/xlink" width="113.937" height="103" viewBox="0 0 113.937 103">
  <defs>
    <linearGradient id="linear-gradient" x1="0.5" x2="0.5" y2="1" gradientUnits="objectBoundingBox">
      <stop offset="0" stop-color="#ffdf00"/>
      <stop offset="1" stop-color="#f60"/>
    </linearGradient>
  </defs>
  <g id="Group_175" data-name="Group 175" transform="translate(-91.592 -441.863)">
    <path id="Path_1454" data-name="Path 1454" d="M191.64,500.266c0,11.972-.157,23.946.083,35.914.088,4.363-1.475,5.617-5.7,5.647-14.159.1-14.158.243-14.158-13.914,0-17.186.107-34.371-.086-51.555-.041-3.661.932-6.165,3.935-8.293,3.3-2.336,6.243-5.162,9.366-7.744,1.448-1.2,2.774-3.159,4.946-2.258,2.273.944,1.582,3.284,1.589,5.129C191.66,475.551,191.641,487.908,191.64,500.266Z" transform="translate(13.802 2.749)" fill="url(#linear-gradient)"/>
    <path id="Path_1455" data-name="Path 1455" d="M166.471,512.8c0,5.988-.117,11.98.043,17.964.1,3.76-.944,5.7-5.2,5.6-17.872-.44-14.588,2.465-14.948-14.355-.016-.772,0-1.545,0-2.318,0-17.329-.006-17.335,13.792-28.065,1.326-1.031,2.558-2.725,4.529-1.864,2.247.982,1.749,3.215,1.765,5.075C166.505,500.821,166.472,506.81,166.471,512.8Z" transform="translate(9.423 8.203)" fill="url(#linear-gradient)"/>
    <path id="Path_1456" data-name="Path 1456" d="M179.686,448.038c-1.786-1.591-4.034-1.064-6.083-1.392-1.49-.237-2.643-.967-2.575-2.581.07-1.662,1.337-2.3,2.835-2.188q6.936.515,13.858,1.213a3.5,3.5,0,0,1,2.017.919c1.417,1.45.1,16.8-1.565,17.98-2.061,1.458-3.405.42-3.645-1.7a85.528,85.528,0,0,1-.063-8.578c-7.4,5.755-14.042,10.9-20.664,16.074-6.707,5.238-13.5,10.369-20.044,15.808-2.947,2.452-4.91,2.66-7.748-.291-3.251-3.379-5.633-9.606-10.216-9.2-3.9.341-7.424,5.109-11.084,7.958-5.8,4.515-11.554,9.09-17.377,13.574-1.453,1.118-3.124,3.031-4.978.911-1.875-2.143.116-3.479,1.625-4.666,9.883-7.772,19.839-15.453,29.652-23.315,2.62-2.1,4.412-1.56,6.367.723,1.634,1.908,3.7,3.488,5.123,5.528,3.216,4.613,6,4.875,10.51,1.026,9.851-8.408,20.279-16.134,30.452-24.166C177.411,450.621,179.133,449.922,179.686,448.038Z" fill="url(#linear-gradient)"/>
    <path id="Path_1457" data-name="Path 1457" d="M141.007,513.771c0,5.795-.109,11.591.042,17.381.091,3.477-1.32,4.665-4.769,4.833-15.071.728-15.066.818-15.066-14.07v-4.636c0-16.3.032-16.248,14.383-24.5,3.846-2.211,5.367-1.043,5.4,3.028C141.039,501.8,141.005,507.784,141.007,513.771Z" transform="translate(5.098 8.574)" fill="url(#linear-gradient)"/>
    <path id="Path_1458" data-name="Path 1458" d="M115.527,521.666c-.186,12.545,1.782,10.972-11.109,10.9-2.907-.016-7.3,2.066-8.421-2.491-1.116-4.535-.921-9.135,4.5-11.767,3.437-1.669,6.457-4.2,9.652-6.362,3.5-2.364,5.366-1.607,5.378,2.77C115.529,517.032,115.525,519.348,115.527,521.666Z" transform="translate(0.664 11.836)" fill="url(#linear-gradient)"/>
  </g>
</svg>
