<svg xmlns="http://www.w3.org/2000/svg" width="36.777" height="36.781" viewBox="0 0 36.777 36.781">
  <g id="Group_195" data-name="Group 195" transform="translate(-605.823 144.816)">
    <path id="Path_1521" data-name="Path 1521" d="M624.211-108.035A18.355,18.355,0,0,0,642.6-126.31a18.348,18.348,0,0,0-18.348-18.506,18.35,18.35,0,0,0-18.43,18.351A18.35,18.35,0,0,0,624.211-108.035Z" fill="#fefefe"/>
    <path id="Path_1522" data-name="Path 1522" d="M624.211-108.035a18.35,18.35,0,0,1-18.388-18.43,18.35,18.35,0,0,1,18.43-18.351A18.348,18.348,0,0,1,642.6-126.31,18.355,18.355,0,0,1,624.211-108.035Zm-4.9-14.13c0,.677,0,1.354,0,2.03,0,.342.114.791-.057,1s-.645.046-.985.068c-.076,0-.154,0-.229,0a1.2,1.2,0,0,0-.89.456,1.157,1.157,0,0,0-.152,1.287,1.232,1.232,0,0,0,1.211.707c.355,0,.821-.119,1.034.058s.047.669.069,1.022c0,.026,0,.051,0,.077a1.253,1.253,0,0,0,1.234,1.292,1.252,1.252,0,0,0,1.217-1.309,5.722,5.722,0,0,0-.005-.8c-.036-.306.09-.359.361-.344.394.023.791,0,1.187.007.291,0,.671-.093.849.053s.043.549.061.838c0,.076,0,.153,0,.23a1.354,1.354,0,0,0,1.225,1.329,1.349,1.349,0,0,0,1.226-1.327,7.762,7.762,0,0,0-.006-.919c-.029-.279.084-.369.336-.418a5.683,5.683,0,0,0,2.618-1.263,5.071,5.071,0,0,0,1.939-4.256,5.215,5.215,0,0,0-2.029-3.836c-.232-.195-.261-.265-.007-.473a5.083,5.083,0,0,0,1.066-7.058,5.753,5.753,0,0,0-3.541-2.292c-.271-.061-.42-.137-.382-.458a6.6,6.6,0,0,0,.006-.957,1.245,1.245,0,0,0-1.226-1.258,1.246,1.246,0,0,0-1.222,1.263c-.008.319-.012.639,0,.957.009.188-.056.235-.237.232q-1-.015-1.992,0c-.19,0-.238-.059-.231-.239.013-.319.01-.638,0-.957a1.184,1.184,0,0,0-1.239-1.26,1.179,1.179,0,0,0-1.21,1.249c-.008.319-.016.639,0,.957.012.211-.067.258-.26.249-.318-.014-.638-.011-.957,0a1.178,1.178,0,0,0-1.238,1.22,1.178,1.178,0,0,0,1.23,1.228c.319.01.638.009.957,0,.177-.005.27.014.269.239q-.015,2.835,0,5.669c0,.194-.067.234-.242.227-.319-.012-.639-.011-.957,0a1.248,1.248,0,0,0-1.253,1.231,1.249,1.249,0,0,0,1.267,1.218,7.8,7.8,0,0,0,.88,0c.266-.024.309.083.306.32C619.3-123.978,619.308-123.072,619.308-122.165Z" fill="#4e4e4e"/>
    <path id="Path_1523" data-name="Path 1523" d="M667.568-97.4c-.613,0-1.226-.008-1.838,0-.206,0-.283-.039-.281-.266q.014-2.8,0-5.593c0-.207.04-.283.267-.281,1.238.013,2.477-.013,3.715.014a3.474,3.474,0,0,1,3.315,2.521,2.633,2.633,0,0,1-1.058,2.73,3.847,3.847,0,0,1-2.473.87C668.666-97.4,668.117-97.4,667.568-97.4Z" transform="translate(-43.693 -30.247)" fill="#4e4e4e"/>
    <path id="Path_1524" data-name="Path 1524" d="M665.451-68.348c0-.932.007-1.865-.005-2.8,0-.216.057-.276.274-.274,1.226.011,2.452-.01,3.677.011a3.483,3.483,0,0,1,3.348,2.529,2.633,2.633,0,0,1-1.065,2.728,3.835,3.835,0,0,1-2.474.866c-1.149,0-2.3-.006-3.447.007-.249,0-.319-.061-.314-.313C665.46-66.51,665.451-67.429,665.451-68.348Z" transform="translate(-43.69 -53.785)" fill="#4e4e4e"/>
  </g>
</svg>
