<svg xmlns="http://www.w3.org/2000/svg" width="40.876" height="40.894" viewBox="0 0 40.876 40.894">
  <g id="Group_187" data-name="Group 187" transform="translate(-436.226 -133.876)">
    <path id="Path_1489" data-name="Path 1489" d="M450.815,159.739c.132.023.244.037.353.063a1.354,1.354,0,0,1,1.083,1.5,1.379,1.379,0,0,1-1.344,1.185,5.07,5.07,0,0,1-.723,0,.417.417,0,0,0-.477.3,19.923,19.923,0,0,1-5.5,7.191c-.241.2-.232.286.012.477a19.672,19.672,0,0,0,10.226,4.187,19.9,19.9,0,0,0,11.965-2.354,18.333,18.333,0,0,0,3.05-2.078,19.5,19.5,0,0,1-5.486-6.772c-.346-.717-.7-1.122-1.519-.95a.49.49,0,0,1-.169-.011,1.366,1.366,0,0,1-1.188-1.25,1.331,1.331,0,0,1,1.075-1.423c.119-.029.241-.049.361-.072a20.406,20.406,0,0,1-.616-3.222c-.027-.265.021-.6-.125-.771s-.508-.039-.773-.063a1.366,1.366,0,0,1-1.286-1.377,1.349,1.349,0,0,1,1.316-1.343,4.912,4.912,0,0,1,.553,0c.171.009.252-.036.263-.23a19.605,19.605,0,0,1,.665-3.829c-.139-.029-.264-.05-.386-.082a1.338,1.338,0,0,1-1.044-1.486,1.366,1.366,0,0,1,1.3-1.183,6.383,6.383,0,0,1,.808,0,.371.371,0,0,0,.415-.261,20.178,20.178,0,0,1,5.309-6.926c.5-.432.5-.437-.036-.852a19.578,19.578,0,0,0-14.944-4.055,19.276,19.276,0,0,0-9.776,4.186c-.271.216-.246.305,0,.51a19.064,19.064,0,0,1,5.135,6.319c.371.758.709,1.222,1.656,1.1a1.255,1.255,0,0,1,1.283,1.174,1.338,1.338,0,0,1-1.058,1.476c-.122.031-.247.05-.375.076a18.641,18.641,0,0,1,.6,3.083c.027.3-.036.658.112.871.181.26.576.065.874.107a1.373,1.373,0,0,1,1.223,1.26,1.311,1.311,0,0,1-1.075,1.417,3.286,3.286,0,0,1-.761.039c-.208-.006-.293.044-.308.276A19.324,19.324,0,0,1,450.815,159.739Zm15.757,2.775a18.423,18.423,0,0,0,4.546,5.581c.288.241.415.209.649-.057a20.112,20.112,0,0,0,5.08-16.928,19.5,19.5,0,0,0-5.163-10.539c-.2-.217-.311-.172-.494-.011a21.759,21.759,0,0,0-2.972,3.034,15.194,15.194,0,0,0-1.616,2.522l.279.078a1.35,1.35,0,0,1-.141,2.654,4.667,4.667,0,0,1-.977.013c-.291-.024-.414.071-.494.355a19.031,19.031,0,0,0-.612,2.985c-.081.709-.1.706.583.755a1.4,1.4,0,0,1,1.3,1.142,1.361,1.361,0,0,1-.762,1.436,1.342,1.342,0,0,1-.784.14c-.4-.061-.436.13-.392.453a22.514,22.514,0,0,0,.521,2.791c.226.85.231.848,1.133.849.128,0,.256-.007.383,0a1.362,1.362,0,0,1,1.167,1.886A1.479,1.479,0,0,1,466.573,162.514Zm-19.8-16.4a18.063,18.063,0,0,0-4.637-5.625c-.172-.144-.244-.09-.369.043a19.9,19.9,0,0,0-5.422,11.722,19.658,19.658,0,0,0,1.182,9.137,20.672,20.672,0,0,0,4.1,6.691c.226.25.367.253.589.031s.491-.43.732-.649a17.689,17.689,0,0,0,3.83-4.942l-.3-.087a1.344,1.344,0,0,1-1.033-1.417,1.363,1.363,0,0,1,1.249-1.24,5.6,5.6,0,0,1,.978,0c.253.021.342-.084.406-.3a22.784,22.784,0,0,0,.671-3.278c.053-.378.007-.552-.449-.525a1.357,1.357,0,1,1,.036-2.7c.412.011.464-.13.418-.476a21.4,21.4,0,0,0-.664-3.28c-.075-.252-.165-.38-.453-.352a5.4,5.4,0,0,1-.893,0,1.388,1.388,0,0,1-1.3-1.2,1.346,1.346,0,0,1,1.022-1.464Z" transform="translate(0)" fill="#4e4e4e"/>
    <path id="Path_1490" data-name="Path 1490" d="M469.181,159.739a19.326,19.326,0,0,0,.666-3.789c.015-.232.1-.281.308-.276a3.286,3.286,0,0,0,.761-.039,1.311,1.311,0,0,0,1.075-1.417,1.373,1.373,0,0,0-1.223-1.26c-.3-.042-.693.153-.874-.107-.148-.213-.084-.575-.112-.871a18.644,18.644,0,0,0-.6-3.083c.128-.026.253-.045.375-.076a1.338,1.338,0,0,0,1.058-1.476,1.255,1.255,0,0,0-1.283-1.174c-.947.118-1.285-.346-1.656-1.1a19.064,19.064,0,0,0-5.135-6.319c-.249-.205-.273-.295,0-.51a19.277,19.277,0,0,1,9.776-4.186,19.578,19.578,0,0,1,14.944,4.055c.537.415.538.42.036.852a20.178,20.178,0,0,0-5.309,6.926.371.371,0,0,1-.415.261,6.383,6.383,0,0,0-.808,0,1.366,1.366,0,0,0-1.3,1.183,1.338,1.338,0,0,0,1.044,1.486c.122.032.247.053.386.082a19.6,19.6,0,0,0-.665,3.829c-.011.194-.092.238-.263.23a4.912,4.912,0,0,0-.553,0A1.349,1.349,0,0,0,478.1,154.3a1.366,1.366,0,0,0,1.286,1.377c.265.023.617-.115.773.063s.1.506.125.771a20.41,20.41,0,0,0,.616,3.222c-.12.024-.242.043-.361.072a1.331,1.331,0,0,0-1.076,1.423,1.366,1.366,0,0,0,1.188,1.25.49.49,0,0,0,.169.011c.816-.172,1.173.232,1.519.95a19.5,19.5,0,0,0,5.486,6.772,18.335,18.335,0,0,1-3.05,2.078,19.9,19.9,0,0,1-11.965,2.354,19.673,19.673,0,0,1-10.226-4.187c-.243-.191-.253-.276-.012-.477a19.923,19.923,0,0,0,5.5-7.191.417.417,0,0,1,.477-.3,5.07,5.07,0,0,0,.723,0,1.379,1.379,0,0,0,1.344-1.185,1.354,1.354,0,0,0-1.083-1.5C469.425,159.776,469.313,159.763,469.181,159.739Z" transform="translate(-18.365)" fill="#4e4e4e"/>
    <path id="Path_1491" data-name="Path 1491" d="M533.741,178.018a1.479,1.479,0,0,0,1.238-.857,1.362,1.362,0,0,0-1.167-1.886c-.127-.012-.255,0-.383,0-.9,0-.907,0-1.133-.849a22.519,22.519,0,0,1-.521-2.791c-.044-.323-.007-.515.392-.453a1.342,1.342,0,0,0,.784-.14,1.361,1.361,0,0,0,.762-1.436,1.4,1.4,0,0,0-1.3-1.142c-.682-.049-.664-.046-.583-.755a19.031,19.031,0,0,1,.612-2.985c.08-.284.2-.379.494-.355a4.669,4.669,0,0,0,.977-.013,1.35,1.35,0,0,0,.141-2.654l-.279-.078a15.189,15.189,0,0,1,1.616-2.522,21.758,21.758,0,0,1,2.972-3.034c.183-.161.294-.206.494.011a19.5,19.5,0,0,1,5.163,10.539,20.112,20.112,0,0,1-5.08,16.928c-.233.266-.361.3-.649.057A18.423,18.423,0,0,1,533.741,178.018Z" transform="translate(-67.168 -15.504)" fill="#4e4e4e"/>
    <path id="Path_1492" data-name="Path 1492" d="M446.771,161.568l-.311.088a1.346,1.346,0,0,0-1.022,1.464,1.388,1.388,0,0,0,1.3,1.2,5.4,5.4,0,0,0,.893,0c.288-.029.378.1.453.352a21.4,21.4,0,0,1,.664,3.28c.046.345-.006.486-.418.476a1.357,1.357,0,1,0-.036,2.7c.456-.027.5.147.449.525a22.784,22.784,0,0,1-.671,3.278c-.064.219-.154.325-.406.3a5.6,5.6,0,0,0-.978,0,1.363,1.363,0,0,0-1.249,1.24,1.344,1.344,0,0,0,1.033,1.417l.3.087a17.689,17.689,0,0,1-3.83,4.942c-.241.219-.5.42-.732.649s-.363.219-.589-.031a20.672,20.672,0,0,1-4.1-6.691,19.658,19.658,0,0,1-1.182-9.137,19.9,19.9,0,0,1,5.422-11.722c.125-.133.2-.187.369-.043A18.063,18.063,0,0,1,446.771,161.568Z" transform="translate(0 -15.455)" fill="#4e4e4e"/>
  </g>
</svg>
