<svg xmlns="http://www.w3.org/2000/svg" width="40" height="52.5" viewBox="0 0 40 52.5">
  <g id="Group_181" data-name="Group 181" transform="translate(-443.765 39.837)">
    <path id="Path_1481" data-name="Path 1481" d="M494.619,87.521c0-1.417-.014-2.834.009-4.251.006-.363-.092-.446-.448-.444-2.424.017-4.848.012-7.272.006a4.258,4.258,0,0,0-1.063.129,4.774,4.774,0,0,0-3.514,5.148,4.637,4.637,0,0,0,4.638,4.054c2.39,0,4.78-.005,7.17.008.346,0,.5-.03.492-.452C494.6,90.321,494.619,88.921,494.619,87.521Zm-13.845-4.657a1.225,1.225,0,0,0-.169-.027c-3.414,0-6.827.006-10.241-.011-.375,0-.354.175-.353.43,0,2.816.011,5.632-.007,8.449,0,.385.093.472.473.47,3.294-.017,6.589-.009,9.883-.009h.439A7.811,7.811,0,0,1,480.774,82.864Z" transform="translate(-17.009 -79.512)" fill="#4e4e4e"/>
    <path id="Path_1482" data-name="Path 1482" d="M469.2-39.837c.671.132,1.35.235,2.012.4a15.961,15.961,0,0,1,11.9,11.232,13.966,13.966,0,0,1,.647,4.59c-.047,2.6.084,5.193-.1,7.787a37.654,37.654,0,0,1-3.34,13.083c-.416.914-.876,1.806-1.352,2.69a.493.493,0,0,1-.508.306q-13.659-.009-27.319,0a.678.678,0,0,1-.541-.2c-1.73-1.748-3.513-3.447-5.2-5.236a5.878,5.878,0,0,1,2.892-9.789,5.33,5.33,0,0,1,1.317-.155c3.178.006,6.356,0,9.534,0a3.048,3.048,0,0,1,3.085,3.076,3.051,3.051,0,0,1-3.089,3.073c-1.9.005-3.793.01-5.689-.007-.341,0-.477.053-.458.433.034.716.03,1.436,0,2.152-.015.38.064.517.486.51,1.811-.027,3.622-.01,5.433-.012a6.162,6.162,0,0,0,6.363-5.728c.036-.35.122-.445.473-.43a11.248,11.248,0,0,0,6.307-1.358,10.651,10.651,0,0,0,5.545-9.3c.021-.526.185-1.221-.078-1.533s-.992-.1-1.514-.092c-.487,0-1.139-.227-1.413.1-.237.282-.063.914-.064,1.391a7.659,7.659,0,0,1-7.717,7.729c-.666,0-1.333-.01-2,.005a.584.584,0,0,1-.573-.3,6.039,6.039,0,0,0-5.234-2.779q-4.844-.022-9.687,0a.832.832,0,0,1-.755-.376,8.691,8.691,0,0,1-1.689-6.262,16.121,16.121,0,0,1,6.915-12.114,15.664,15.664,0,0,1,7.111-2.776c.1-.015.249.055.3-.111Z" transform="translate(0)" fill="#4e4e4e"/>
    <path id="Path_1483" data-name="Path 1483" d="M517.274,87.522c0,1.4-.021,2.8.013,4.2.01.422-.146.454-.492.452-2.39-.013-4.78,0-7.17-.008a4.637,4.637,0,0,1-4.638-4.054,4.774,4.774,0,0,1,3.514-5.148,4.258,4.258,0,0,1,1.063-.129c2.424.006,4.848.011,7.272-.006.356,0,.454.08.448.444C517.26,84.688,517.274,86.105,517.274,87.522Z" transform="translate(-39.664 -79.513)" fill="#4e4e4e"/>
    <path id="Path_1484" data-name="Path 1484" d="M480.774,82.864a7.811,7.811,0,0,0,.024,9.3h-.439c-3.294,0-6.588-.007-9.883.009-.38,0-.475-.085-.473-.47.019-2.816.012-5.633.007-8.449,0-.255-.022-.432.353-.43,3.414.017,6.827.01,10.241.011A1.225,1.225,0,0,1,480.774,82.864Z" transform="translate(-17.009 -79.512)" fill="#4e4e4e"/>
  </g>
</svg>
