<svg fill="current" stroke="current" xmlns="http://www.w3.org/2000/svg" width="40" height="40.001" viewBox="0 0 40 40.001">
  <g id="Group_193" data-name="Group 193" transform="translate(-247.539 233.616)">
    <path id="Path_1517" data-name="Path 1517" d="M278.868-193.615h-1.641c-.63-.21-1.284-.329-1.9-.586q-5.919-2.457-11.849-4.888-6.823-2.812-13.645-5.627a3.534,3.534,0,0,1-2.29-3.43q0-2.715,0-5.429a16.872,16.872,0,0,1,.4-3.714,21.775,21.775,0,0,1,7.5-12.211,16.8,16.8,0,0,1,6.642-3.452,20.693,20.693,0,0,1,7.693-.514,20.321,20.321,0,0,1,6.328,1.794,19.811,19.811,0,0,1,10.478,11.633,16.2,16.2,0,0,1,.784,3.1c-1.072-.131-2.1-.255-3.132-.383q-2.687-.334-5.375-.673l-5.3-.666c-1.121-.14-2.24-.318-3.366-.409a3.523,3.523,0,0,0-3.745,3.562c-.016,1.64,0,3.281,0,4.921a3.657,3.657,0,0,0,2.2,3.548q7.669,3.81,15.322,7.654c.839.419.847.422.5,1.3a6.738,6.738,0,0,1-4.237,4.12C279.788-193.811,279.323-193.729,278.868-193.615Zm-21.855-23.438a4.713,4.713,0,0,0-4.706,4.671,4.722,4.722,0,0,0,4.685,4.7,4.721,4.721,0,0,0,4.686-4.656A4.715,4.715,0,0,0,257.013-217.053Z" />
    <path id="Path_1518" data-name="Path 1518" d="M363.134-151.313c-.32.528-.717.924-1.4.78a2.153,2.153,0,0,1-.506-.192q-5.93-2.958-11.858-5.921c-.181-.09-.3-.167-.3-.422.013-2.864.008-5.728.009-8.591,0-.076.012-.153.019-.234q5.007.619,9.986,1.236c1.353.169,2.7.354,4.056.531Z" transform="translate(-75.594 -50.427)" />
    <path id="Path_1519" data-name="Path 1519" d="M333.083-159.167c-.663-.347-1.277-.645-1.865-.986a.981.981,0,0,1-.476-.886c0-1.794-.009-3.587,0-5.381a1.108,1.108,0,0,1,1.132-1.1c.336,0,.671.061,1.008.08.182.01.2.108.2.257-.007.26,0,.52,0,.779v7.233Z" transform="translate(-61.949 -49.217)" />
    <path id="Path_1520" data-name="Path 1520" d="M277.708-159.593a2.337,2.337,0,0,1,2.358,2.335,2.352,2.352,0,0,1-2.348,2.352,2.352,2.352,0,0,1-2.338-2.323A2.337,2.337,0,0,1,277.708-159.593Z" transform="translate(-20.729 -55.118)" />
  </g>
</svg>
