<svg fill="current" stroke="current" xmlns="http://www.w3.org/2000/svg" width="40" height="40" viewBox="0 0 40 40">
  <g id="Group_185" data-name="Group 185" transform="translate(290.03 238.373)">
    <path id="Path_1486" data-name="Path 1486" d="M-185.755-219a15.07,15.07,0,0,1-3.442-.776,24.393,24.393,0,0,1-11.51-8.4,22.223,22.223,0,0,1-4.151-8.539c-.106-.441-.161-.893-.253-1.338-.049-.238-.018-.342.271-.326a18.831,18.831,0,0,1,4.822.83c7.4,2.418,12,7.438,13.84,14.985a13,13,0,0,1,.346,2.348c0,.07-.027.161.076.2Z" transform="translate(-64.276)"/>
    <path id="Path_1487" data-name="Path 1487" d="M-271.747-134.093a6.691,6.691,0,0,0-1.356-.222,19.751,19.751,0,0,1-13.664-8.8,19.5,19.5,0,0,1-3.16-8.769c-.053-.452-.057-.909-.1-1.361-.02-.211.067-.236.244-.208a20.569,20.569,0,0,1,6.454,2.163,25.33,25.33,0,0,1,8.522,7.351,22.143,22.143,0,0,1,3.893,8.238c.124.528.176,1.074.261,1.611Z" transform="translate(0 -64.28)"/>
    <path id="Path_1488" data-name="Path 1488" d="M-267.659-198.181c-.3.054-.269-.156-.286-.292a21.25,21.25,0,0,0-1.692-5.96,26.784,26.784,0,0,0-6.631-9.1,25.531,25.531,0,0,0-9.611-5.6,18.61,18.61,0,0,0-3.489-.765c-.234-.026-.331-.1-.3-.362a20.747,20.747,0,0,1,1.579-5.873,19.807,19.807,0,0,1,5.77-7.542,20.105,20.105,0,0,1,9.227-4.154c.358-.064.727-.069,1.08-.151.305-.071.414.022.446.318a17.49,17.49,0,0,0,.668,3.154,25.033,25.033,0,0,0,4.573,8.6,26.929,26.929,0,0,0,10.747,8.167,19.79,19.79,0,0,0,5.347,1.448c.443.051.368.258.333.568a19.282,19.282,0,0,1-1.586,5.788,19.709,19.709,0,0,1-7.1,8.451,19.961,19.961,0,0,1-7.731,3.112C-266.774-198.286-267.24-198.238-267.659-198.181Z" transform="translate(-0.271 -0.285)"/>
  </g>
</svg>
