<svg xmlns="http://www.w3.org/2000/svg" xmlns:xlink="http://www.w3.org/1999/xlink" width="117.997" height="118.002" viewBox="0 0 117.997 118.002">
  <defs>
    <linearGradient id="linear-gradient" x1="0.5" x2="0.5" y2="1.6" gradientUnits="objectBoundingBox">
      <stop offset="0" stop-color="#00e5ff"/>
      <stop offset="1" stop-color="#00b9ff"/>
    </linearGradient>
  </defs>
  <g id="Group_176" data-name="Group 176" transform="translate(215.665 -444.783)">
    <path id="Path_1459" data-name="Path 1459" d="M-158.688,444.783c.029,3.984,1.152,8.4-.2,11.836-1.552,3.943-6.93,2.209-10.443,3.7-4.674,1.988-9.334,3.92-13.275,7.15-1.694,1.389-2.64,1.157-4.182-.263-8.426-7.753-8.413-8.246,1.526-14.14a62.607,62.607,0,0,1,15.619-6.535c1.526-.415,3.422-.1,4.491-1.751Z" transform="translate(-1.545 0)" fill="url(#linear-gradient)"/>
    <path id="Path_1460" data-name="Path 1460" d="M-215.665,495.25c1.645-1.074,1.35-2.964,1.751-4.492a61.293,61.293,0,0,1,11.224-22.423c1.367-1.747,2.356-1.992,3.916-.25,2.144,2.393,5.467,4.247,6.479,7,1.039,2.82-2.7,4.99-4.073,7.609-2.588,4.93-4.759,10.023-5.3,15.543-.309,3.141-1.585,3.806-4.343,3.628-3.206-.207-6.432-.11-9.65-.145Z" transform="translate(0 -1.502)" fill="url(#linear-gradient)"/>
    <path id="Path_1461" data-name="Path 1461" d="M-215.665,512.153c3.985-.023,8.4-1.138,11.839.218,3.941,1.553,2.217,6.926,3.7,10.44,1.981,4.681,3.928,9.334,7.154,13.275,1.392,1.7,1.159,2.64-.26,4.179-7.71,8.372-8.324,8.348-14.149-1.537a60.823,60.823,0,0,1-6.644-16.066c-.347-1.37-.032-3.142-1.644-4.043Z" transform="translate(0 -4.546)" fill="url(#linear-gradient)"/>
    <path id="Path_1462" data-name="Path 1462" d="M-142.733,444.783c3.707,1.188,7.437,2.3,11.114,3.579a58.9,58.9,0,0,1,16.746,9.4c1.766,1.367,1.945,2.38.217,3.925-2.394,2.142-4.25,5.473-7,6.47-2.805,1.019-4.981-2.721-7.607-4.092-4.934-2.576-10.024-4.756-15.547-5.289-3.148-.3-3.807-1.588-3.629-4.343.208-3.206.121-6.432.162-9.649Z" transform="translate(-4.566 0)" fill="url(#linear-gradient)"/>
    <path id="Path_1463" data-name="Path 1463" d="M-116.256,505.586a38.819,38.819,0,0,1-38.884,38.606,38.815,38.815,0,0,1-38.716-39.232,38.814,38.814,0,0,1,39.115-38.366A38.8,38.8,0,0,1-116.256,505.586Zm-38.495-27.915c-2.4,0-3.711,1.379-3.81,4.485-.071,2.205-.647,3.181-2.953,3.7-6.48,1.464-10.237,6.3-9.775,12.035.5,6.239,5.348,10.735,12.068,11.057,2.917.14,5.848-.017,8.768.079A4.305,4.305,0,0,1-145.9,513.3c.2,2.7-1.465,4.8-3.954,4.8-5.353,0-11.129,2-15.815-2.606a2.987,2.987,0,0,0-4.543.223c-1.489,1.587-1.352,3.352.112,4.939a11.976,11.976,0,0,0,7.93,4.268c2.229.177,3.849.677,3.578,3.515-.225,2.36.62,4.5,3.337,4.614,3.025.123,3.876-2.1,3.743-4.675-.106-2.066.667-2.9,2.716-3.408,6.857-1.7,10.508-6.409,9.932-12.354-.612-6.313-5.679-10.621-12.772-10.8-2.768-.072-5.543.055-8.307-.085a4.247,4.247,0,0,1-4.268-4.061c-.315-2.517,1.15-4.672,3.36-4.777,5.468-.259,11.434-2.352,15.938,3.022a3.132,3.132,0,0,0,4.888.334c1.584-1.472,1.422-3.264.179-4.987a11.964,11.964,0,0,0-7.854-5.234c-2.7-.422-4.136-1.276-3.861-4.341A3.432,3.432,0,0,0-154.751,477.67Z" transform="translate(-1.482 -1.482)" fill="url(#linear-gradient)"/>
    <path id="Path_1464" data-name="Path 1464" d="M-158.6,562.307c0,7.86,0,7.879-6.555,6.771a58.827,58.827,0,0,1-26.67-11.906c-1.826-1.42-2.5-2.429-.436-4.219,2.435-2.112,4.308-5.523,7.064-6.433s5,2.819,7.662,4.2c4.125,2.139,8.321,4.273,12.919,4.724C-159.348,555.961-156.98,557.974-158.6,562.307Z" transform="translate(-1.504 -6.903)" fill="url(#linear-gradient)"/>
    <path id="Path_1465" data-name="Path 1465" d="M-98.111,501.859c-4.2,1.232-6.274-.626-6.869-5.82a34.62,34.62,0,0,0-7.742-17.523c-1.933-2.424-1.679-3.91.56-5.576a9.59,9.59,0,0,0,.986-.97c6.225-6.227,6.259-6.25,11.024,1.032a63.531,63.531,0,0,1,9.093,23.475c.8,4.243.2,6.158-4.439,5.4A21.25,21.25,0,0,0-98.111,501.859Z" transform="translate(-6.906 -1.538)" fill="url(#linear-gradient)"/>
    <path id="Path_1466" data-name="Path 1466" d="M-97.917,512.047c7.657,0,7.7.007,6.493,6.926a59.374,59.374,0,0,1-11.791,26.23c-1.7,2.217-2.8,2.208-4.546.2-2.017-2.314-5.327-4.091-6.143-6.7-.873-2.8,2.766-5.017,4.14-7.672,2.136-4.124,4.367-8.306,4.72-12.908C-104.628,512.706-102.263,510.849-97.917,512.047Z" transform="translate(-6.905 -4.546)" fill="url(#linear-gradient)"/>
    <path id="Path_1467" data-name="Path 1467" d="M-148.417,562c-1.022-3.952.655-5.929,5.673-6.5,6.775-.764,12.871-3.913,18.234-8.146,1.9-1.5,2.9-1.2,4.53.349,8.238,7.833,8.26,8.031-1.562,13.86a58.438,58.438,0,0,1-21.448,7.725c-5.434.805-5.42.9-5.426-4.7Z" transform="translate(-4.55 -6.902)" fill="url(#linear-gradient)"/>
  </g>
</svg>
