<?xml version="1.0" encoding="utf-8"?>
<!-- Generator: Adobe Illustrator 16.0.0, SVG Export Plug-In . SVG Version: 6.00 Build 0)  -->
<!DOCTYPE svg PUBLIC "-//W3C//DTD SVG 1.1//EN" "http://www.w3.org/Graphics/SVG/1.1/DTD/svg11.dtd">
<svg version="1.1" id="Layer_1" xmlns="http://www.w3.org/2000/svg" xmlns:xlink="http://www.w3.org/1999/xlink" x="0px" y="0px"
	 width="960px" height="560px" viewBox="320 155 320 250"  xml:space="preserve">
<g>
	<linearGradient id="SVGID_1_" gradientUnits="userSpaceOnUse" x1="529.5918" y1="237.645" x2="546.423" y2="217.5864">
		<stop  offset="0" style="stop-color:#FCDD29"/>
		<stop  offset="1" style="stop-color:#F89A25"/>
	</linearGradient>
	<path fill-rule="evenodd" clip-rule="evenodd" fill="url(#SVGID_1_)" d="M551.019,227.858c-0.104,7.342-5.592,12.65-13.097,12.667
		c-7.255,0.017-13.027-5.611-13.098-12.77c-0.075-7.482,5.681-12.943,13.515-12.824
		C545.936,215.046,551.124,220.333,551.019,227.858z"/>
	<g>
		<linearGradient id="SVGID_2_" gradientUnits="userSpaceOnUse" x1="374.4351" y1="304.4668" x2="574.9912" y2="304.4668">
			<stop  offset="0" style="stop-color:#0EE2F5"/>
			<stop  offset="0.1279" style="stop-color:#0EDDF3"/>
			<stop  offset="0.2771" style="stop-color:#0ECFEC"/>
			<stop  offset="0.4362" style="stop-color:#0FB8E1"/>
			<stop  offset="0.5615" style="stop-color:#0FA0D6"/>
			<stop  offset="1" style="stop-color:#0F86CA"/>
		</linearGradient>
		<path fill-rule="evenodd" clip-rule="evenodd" fill="url(#SVGID_2_)" d="M509.884,278.25
			c-25.838,5.384-49.959,15.494-73.946,26.169c-12.199,5.429-24.785,10.152-37.523,14.152c-8.634,2.71-14.751-1.375-17.453-10.097
			c-1.132-3.653-1.403-7.574-2.097-11.558c-10.516,13.853-1.211,35.019,16.383,36.744c7.217,0.707,14.973,0.319,21.925-1.596
			c14.237-3.921,28.071-9.287,42.118-13.915c13.479-4.439,27.003-8.744,40.546-12.983c1.911-0.598,4.048-0.485,6.469-0.742
			c-0.258,3.731-0.453,6.567-0.654,9.48c23.313-12.61,46.053-24.911,69.341-37.509c-1.292-0.349-2.401-0.881-3.527-0.918
			C550.866,274.812,530.264,274.004,509.884,278.25z"/>
		<linearGradient id="SVGID_3_" gradientUnits="userSpaceOnUse" x1="375.4922" y1="256.4712" x2="578.2905" y2="220.7124">
			<stop  offset="0" style="stop-color:#FCDD29"/>
			<stop  offset="1" style="stop-color:#F89A25"/>
		</linearGradient>
		<path fill-rule="evenodd" clip-rule="evenodd" fill="url(#SVGID_3_)" d="M551.103,253.593c-7.296-2.704-14.663-5.274-21.766-8.434
			c-6.41-2.853-9.956-8.247-9.45-15.335c0.495-6.931,1.646-13.835,2.864-20.688c1.677-9.429,3.852-18.77,5.475-28.206
			c0.722-4.198-0.908-7.778-5.608-8.414c-8.235-1.114-15.161,2.229-21.653,6.69c3.331,0.346,6.482-0.11,9.635-0.094
			c5.481,0.028,7.464,2.405,5.854,7.621c-1.344,4.357-3.204,8.633-5.396,12.636c-10.663,19.458-26.626,34.329-42.852,48.943
			c-17.607,15.86-36.681,29.676-57.659,40.744c-4.848,2.557-9.872,5.478-15.892,3.436c-6.516-8.206-0.613-16.105,0.406-24.051
			c-0.654-0.312-1.308-0.624-1.961-0.935c-3.115,7.64-6.963,15.075-9.186,22.968c-4.026,14.302,4.8,23.55,19.292,20.223
			c6.923-1.589,13.496-4.845,20.107-7.633c19.68-8.3,38.908-17.872,59.038-24.859c28.788-9.994,58.726-13.564,89.264-10.35
			c4.749,0.5,9.546,0.53,14.319,0.777c0.143-0.717,0.283-1.435,0.427-2.152C574.604,262.189,562.835,257.941,551.103,253.593z"/>
		<linearGradient id="SVGID_4_" gradientUnits="userSpaceOnUse" x1="410" y1="222" x2="410" y2="287.0952">
			<stop  offset="0" style="stop-color:#0EE2F5"/>
			<stop  offset="0.1279" style="stop-color:#0EDDF3"/>
			<stop  offset="0.2771" style="stop-color:#0ECFEC"/>
			<stop  offset="0.4362" style="stop-color:#0FB8E1"/>
			<stop  offset="0.5615" style="stop-color:#0FA0D6"/>
			<stop  offset="1" style="stop-color:#0F86CA"/>
		</linearGradient>
		<path fill-rule="evenodd" clip-rule="evenodd" fill="url(#SVGID_4_)" d="M407.687,283.753c4.179-2.205,8.313-4.535,12.313-6.982
			V245h-5.138l5.138-8.501V222h-20v65.095c2-0.302,4.565-1.597,7.17-2.978L407.687,283.753z"/>
		<linearGradient id="SVGID_5_" gradientUnits="userSpaceOnUse" x1="434" y1="204" x2="434" y2="274.5659">
			<stop  offset="0" style="stop-color:#0EE2F5"/>
			<stop  offset="0.1279" style="stop-color:#0EDDF3"/>
			<stop  offset="0.2771" style="stop-color:#0ECFEC"/>
			<stop  offset="0.4362" style="stop-color:#0FB8E1"/>
			<stop  offset="0.5615" style="stop-color:#0FA0D6"/>
			<stop  offset="1" style="stop-color:#0F86CA"/>
		</linearGradient>
		<path fill-rule="evenodd" clip-rule="evenodd" fill="url(#SVGID_5_)" d="M444,227h-5.12l5.12-8.515V204h-20v31.05l5.723,9.95H424
			v29.566c7-4.31,14-8.989,20-14.078V227z"/>
		<linearGradient id="SVGID_6_" gradientUnits="userSpaceOnUse" x1="459" y1="186" x2="459" y2="256.7593">
			<stop  offset="0" style="stop-color:#0EE2F5"/>
			<stop  offset="0.1279" style="stop-color:#0EDDF3"/>
			<stop  offset="0.2771" style="stop-color:#0ECFEC"/>
			<stop  offset="0.4362" style="stop-color:#0FB8E1"/>
			<stop  offset="0.5615" style="stop-color:#0FA0D6"/>
			<stop  offset="1" style="stop-color:#0F86CA"/>
		</linearGradient>
		<path fill-rule="evenodd" clip-rule="evenodd" fill="url(#SVGID_6_)" d="M469,239.176V209h-4.902l4.902-8.528V186h-20v33.071
			l4.741,7.929H449v29.759c5-4.051,9.983-8.337,15.042-12.893C465.79,242.292,468,240.731,469,239.176z"/>
		<linearGradient id="SVGID_7_" gradientUnits="userSpaceOnUse" x1="491.0381" y1="164" x2="491.0381" y2="235.8511">
			<stop  offset="0" style="stop-color:#0EE2F5"/>
			<stop  offset="0.1279" style="stop-color:#0EDDF3"/>
			<stop  offset="0.2771" style="stop-color:#0ECFEC"/>
			<stop  offset="0.4362" style="stop-color:#0FB8E1"/>
			<stop  offset="0.5615" style="stop-color:#0FA0D6"/>
			<stop  offset="1" style="stop-color:#0F86CA"/>
		</linearGradient>
		<path fill-rule="evenodd" clip-rule="evenodd" fill="url(#SVGID_7_)" d="M491,218.047v0.012c13-14.27,16.6-22.226,16.6-22.226
			s4.784-8.956-2.872-2.142L493,205.134V164h-20v35.023l5.959,9.977H473v26.851C479,229.984,485,224.149,491,218.047z"/>
	</g>
	<path fill="#37BEED" d="M333.513,376.568h13.848c0,6.255,6.254,7.296,9.381,7.445c2.605,0,6.329-0.596,6.329-3.723
		c0-5.808-28.589-3.351-28.589-22.335c0-11.019,10.422-16.007,17.719-16.007c6.254,0,12.582,2.011,15.561,7.594l0.745-6.254h12.805
		v18.688h-13.476c0-5.51-4.318-8.636-9.53-8.636c-2.159,0-5.137,1.34-5.137,3.944c0,7.669,29.483,5.883,29.483,23.379
		c0,11.613-10.87,15.782-19.729,15.782c-7.52,0-12.731-3.499-15.561-6.849l-0.818,5.732h-13.029V376.568z"/>
	<path fill="#37BEED" d="M387.194,395.33v-9.604h6.477l10.944-14.221l-13.475-18.538h-3.872v-9.679h29.482v9.679h-4.318l7.296,9.902
		l7.594-9.902h-6.551v-9.679h24.716v9.679h-6.328l-11.242,14.369l13.401,18.314h4.318v9.679h-29.705v-9.679h4.244l-5.659-7.593
		l-1.563-2.086l-7.668,9.754h6.626v9.604H387.194z"/>
	<path fill="#F7931E" d="M493.14,343.289v9.827h-3.945v32.313h9.604v-9.456h12.506v19.357h-41.69v-9.901h4.095v-32.313h-4.095
		v-9.827H493.14z"/>
	<path fill="#F7931E" d="M544.289,395.33v-9.752h7.074l-1.564-5.063h-15.262l-1.563,5.063h5.806v9.752h-23.676v-9.752h5.064
		l10.05-32.685h-3.052v-9.604h28.589l13.178,42.289h5.211v9.752H544.289z M547.045,371.58l-4.913-16.08l-4.839,16.08H547.045z"/>
	<path fill="#F7931E" d="M577.944,385.651h4.318v-32.758h-4.318v-9.604h27.771c12.358,0,18.238,4.616,18.238,12.731
		c0,6.254-1.712,9.307-7.294,11.539c5.359,1.489,9.827,5.436,9.827,12.657c0,10.498-5.883,15.113-20.251,15.113h-28.291V385.651z
		 M597.672,364.284h4.544c3.944,0,5.062-2.159,5.062-5.732c0-3.425-2.086-5.436-4.914-5.436h-4.691V364.284z M603.63,385.651
		c3.126,0,6.03-2.382,6.03-6.403c0-3.796-2.16-6.551-6.253-6.551h-5.735v12.954H603.63z"/>
</g>
</svg>
