<svg width="1407" height="381" viewBox="0 0 1407 381" fill="none" xmlns="http://www.w3.org/2000/svg">
<path d="M566 227.618H605.752C605.752 248.507 623.704 251.984 632.681 252.482C640.158 252.482 650.848 250.491 650.848 240.048C650.848 220.652 568.782 228.857 568.782 165.457C568.782 128.658 598.699 112 619.645 112C637.598 112 655.763 118.716 664.314 137.361L666.453 116.475H703.21V178.886H664.527C664.527 160.485 652.131 150.045 637.17 150.045C630.973 150.045 622.424 154.52 622.424 163.217C622.424 188.828 707.057 182.864 707.057 241.294C707.057 280.077 675.854 294 650.424 294C628.837 294 613.878 282.315 605.755 271.127L603.406 290.27H566.006V227.618H566Z" fill="#37BEED"/>
<path d="M720.095 290.276V258.203H738.688L770.103 210.71L731.423 148.8H720.308V116.475H804.938V148.8H792.543L813.486 181.869L835.285 148.8H816.48V116.475H887.429V148.8H869.264L836.993 196.787L875.462 257.949H887.857V290.273H802.587V257.949H814.77L798.525 232.591L794.038 225.624L772.027 258.199H791.047V290.273H720.095V290.276Z" fill="#37BEED"/>
<path d="M1024.22 116.478V149.297H1012.9V257.211H1040.47V225.631H1076.37V290.276H956.691V257.211H968.446V149.297H956.691V116.478H1024.22V116.478Z" fill="#F7931E"/>
<path d="M1171.05 290.276V257.708H1191.35L1186.86 240.8H1143.05L1138.57 257.708H1155.23V290.276H1087.27V257.708H1101.81L1130.66 148.552H1121.89V116.478H1203.96L1241.79 257.708H1256.75V290.276H1171.05ZM1178.96 210.96L1164.86 157.259L1150.96 210.96H1178.96Z" fill="#F7931E"/>
<path d="M1267.66 257.952H1280.05V148.552H1267.66V116.478H1347.38C1382.85 116.478 1399.73 131.894 1399.73 158.995C1399.73 179.881 1394.81 190.077 1378.79 197.531C1394.17 202.504 1407 215.686 1407 239.801C1407 274.861 1390.11 290.273 1348.87 290.273H1267.66V257.952ZM1324.29 186.594H1337.33C1348.65 186.594 1351.86 179.384 1351.86 167.451C1351.86 156.013 1345.87 149.297 1337.76 149.297H1324.29V186.594H1324.29ZM1341.39 257.952C1350.36 257.952 1358.7 249.997 1358.7 236.568C1358.7 223.891 1352.5 214.69 1340.75 214.69H1324.29V257.952H1341.39Z" fill="#F7931E"/>
<path fill-rule="evenodd" clip-rule="evenodd" d="M303.404 255.92C245.527 267.98 191.496 290.627 137.765 314.539C110.439 326.7 82.2469 337.279 53.7138 346.239C34.3736 352.309 20.6715 343.159 14.619 323.622C12.0834 315.439 11.4763 306.656 9.92172 297.732C-13.6341 328.763 7.20907 376.174 46.6196 380.038C62.7857 381.622 80.1592 380.753 95.7317 376.463C127.623 367.68 158.611 355.66 190.076 345.294C220.269 335.35 250.563 325.707 280.899 316.212C285.18 314.872 289.967 315.125 295.39 314.55C294.812 322.907 294.375 329.26 293.925 335.785C346.146 307.539 397.083 279.984 449.248 251.765C446.354 250.983 443.87 249.791 441.348 249.708C395.204 248.219 349.056 246.409 303.404 255.92Z" fill="url(#paint0_linear_103_2)"/>
<path fill-rule="evenodd" clip-rule="evenodd" d="M395.735 200.688C379.392 194.631 362.89 188.875 346.979 181.796C332.621 175.405 324.678 163.323 325.811 147.446C326.92 131.92 329.498 116.455 332.226 101.105C335.983 79.9837 340.855 59.0598 344.49 37.9232C346.108 28.5197 342.456 20.5005 331.928 19.0759C313.482 16.5805 297.968 24.0688 283.426 34.0614C290.887 34.8365 297.945 33.815 305.008 33.8509C317.286 33.9136 321.727 39.2381 318.121 50.9219C315.11 60.6816 310.944 70.2598 306.034 79.2266C282.149 122.812 246.392 156.124 210.046 188.859C170.606 224.385 127.88 255.333 80.8894 280.125C70.0299 285.853 58.7761 292.396 45.2913 287.822C30.6955 269.441 43.9182 251.747 46.2008 233.948C44.7358 233.249 43.2709 232.55 41.8081 231.853C34.8305 248.967 26.211 265.621 21.2315 283.302C12.2132 315.338 31.9835 336.054 64.4455 328.601C79.9531 325.042 94.6766 317.748 109.485 311.503C153.568 292.911 196.639 271.47 241.73 255.819C306.216 233.433 373.277 225.436 441.682 232.635C452.319 233.755 463.065 233.822 473.756 234.376C474.077 232.77 474.39 231.161 474.713 229.555C448.377 219.943 422.015 210.428 395.735 200.688Z" fill="url(#paint1_linear_103_2)"/>
<path fill-rule="evenodd" clip-rule="evenodd" d="M74.4831 268.247C83.844 263.307 93.1042 258.088 102.064 252.607V181.44H90.555L102.064 162.398V129.92H57.2642V275.733C61.7442 275.056 67.4898 272.156 73.325 269.062L74.4831 268.247Z" fill="url(#paint2_linear_103_2)"/>
<path fill-rule="evenodd" clip-rule="evenodd" d="M155.824 141.12H144.356L155.824 122.046V89.6H111.024V159.152L123.844 181.44H111.024V247.668C126.704 238.013 142.384 227.533 155.824 216.133V141.12Z" fill="url(#paint3_linear_103_2)"/>
<path fill-rule="evenodd" clip-rule="evenodd" d="M211.824 168.394V100.8H200.844L211.824 81.6973V49.28H167.024V123.359L177.644 141.12H167.024V207.78C178.224 198.706 189.386 189.105 200.718 178.9C204.634 175.374 209.584 171.877 211.824 168.394Z" fill="url(#paint4_linear_103_2)"/>
<path fill-rule="evenodd" clip-rule="evenodd" d="M261.104 121.065V121.092C290.224 89.1274 298.288 71.3059 298.288 71.3059C298.288 71.3059 309.004 51.2445 291.855 66.5078L265.584 92.1402V0H220.784V78.4515L234.132 100.8H220.784V160.946C234.224 147.804 247.664 134.734 261.104 121.065Z" fill="url(#paint5_linear_103_2)"/>
<path fill-rule="evenodd" clip-rule="evenodd" d="M395.547 143.042C395.314 159.488 383.021 171.378 366.209 171.416C349.958 171.454 337.029 158.847 336.87 142.811C336.702 126.052 349.595 113.819 367.143 114.085C384.161 114.343 395.782 126.186 395.547 143.042Z" fill="url(#paint6_linear_103_2)"/>
<defs>
<linearGradient id="paint0_linear_103_2" x1="-0.00125325" y1="314.646" x2="449.244" y2="314.646" gradientUnits="userSpaceOnUse">
<stop stop-color="#0EE2F5"/>
<stop offset="0.1279" stop-color="#0EDDF3"/>
<stop offset="0.2771" stop-color="#0ECFEC"/>
<stop offset="0.4362" stop-color="#0FB8E1"/>
<stop offset="0.5615" stop-color="#0FA0D6"/>
<stop offset="1" stop-color="#0F86CA"/>
</linearGradient>
<linearGradient id="paint1_linear_103_2" x1="2.36665" y1="207.135" x2="456.635" y2="127.036" gradientUnits="userSpaceOnUse">
<stop stop-color="#FCDD29"/>
<stop offset="1" stop-color="#F89A25"/>
</linearGradient>
<linearGradient id="paint2_linear_103_2" x1="79.6642" y1="129.92" x2="79.6642" y2="275.733" gradientUnits="userSpaceOnUse">
<stop stop-color="#0EE2F5"/>
<stop offset="0.1279" stop-color="#0EDDF3"/>
<stop offset="0.2771" stop-color="#0ECFEC"/>
<stop offset="0.4362" stop-color="#0FB8E1"/>
<stop offset="0.5615" stop-color="#0FA0D6"/>
<stop offset="1" stop-color="#0F86CA"/>
</linearGradient>
<linearGradient id="paint3_linear_103_2" x1="133.424" y1="89.6" x2="133.424" y2="247.668" gradientUnits="userSpaceOnUse">
<stop stop-color="#0EE2F5"/>
<stop offset="0.1279" stop-color="#0EDDF3"/>
<stop offset="0.2771" stop-color="#0ECFEC"/>
<stop offset="0.4362" stop-color="#0FB8E1"/>
<stop offset="0.5615" stop-color="#0FA0D6"/>
<stop offset="1" stop-color="#0F86CA"/>
</linearGradient>
<linearGradient id="paint4_linear_103_2" x1="189.424" y1="49.28" x2="189.424" y2="207.781" gradientUnits="userSpaceOnUse">
<stop stop-color="#0EE2F5"/>
<stop offset="0.1279" stop-color="#0EDDF3"/>
<stop offset="0.2771" stop-color="#0ECFEC"/>
<stop offset="0.4362" stop-color="#0FB8E1"/>
<stop offset="0.5615" stop-color="#0FA0D6"/>
<stop offset="1" stop-color="#0F86CA"/>
</linearGradient>
<linearGradient id="paint5_linear_103_2" x1="261.19" y1="0" x2="261.19" y2="160.946" gradientUnits="userSpaceOnUse">
<stop stop-color="#0EE2F5"/>
<stop offset="0.1279" stop-color="#0EDDF3"/>
<stop offset="0.2771" stop-color="#0ECFEC"/>
<stop offset="0.4362" stop-color="#0FB8E1"/>
<stop offset="0.5615" stop-color="#0FA0D6"/>
<stop offset="1" stop-color="#0F86CA"/>
</linearGradient>
<linearGradient id="paint6_linear_103_2" x1="347.55" y1="164.965" x2="385.252" y2="120.034" gradientUnits="userSpaceOnUse">
<stop stop-color="#FCDD29"/>
<stop offset="1" stop-color="#F89A25"/>
</linearGradient>
</defs>
</svg>
